<svg width="24" height="25" viewBox="0 0 24 25" fill="none" xmlns="http://www.w3.org/2000/svg">
<path d="M8.99944 22.5L8.74881 18.9911C8.61406 17.1046 10.1082 15.5 11.9994 15.5C13.8907 15.5 15.3848 17.1046 15.2501 18.9911L14.9994 22.5" stroke="black" stroke-width="1.5"/>
<path d="M2.35151 13.7135C1.99849 11.4162 1.82198 10.2676 2.25629 9.24938C2.69059 8.23112 3.65415 7.53443 5.58126 6.14106L7.02111 5.1C9.41841 3.36667 10.6171 2.5 12.0001 2.5C13.3832 2.5 14.5818 3.36667 16.9791 5.1L18.419 6.14106C20.3461 7.53443 21.3097 8.23112 21.744 9.24938C22.1783 10.2676 22.0018 11.4162 21.6487 13.7135L21.3477 15.6724C20.8473 18.9289 20.597 20.5572 19.4291 21.5286C18.2612 22.5 16.5538 22.5 13.1389 22.5H10.8613C7.44646 22.5 5.73903 22.5 4.57112 21.5286C3.40321 20.5572 3.15299 18.9289 2.65255 15.6724L2.35151 13.7135Z" stroke="black" stroke-width="1.5" stroke-linejoin="round"/>
</svg>
